<?xml version="1.0" encoding="utf-8"?>
<!-- Generator: Adobe Illustrator 18.1.1, SVG Export Plug-In . SVG Version: 6.00 Build 0)  -->
<!DOCTYPE svg PUBLIC "-//W3C//DTD SVG 1.1//EN" "http://www.w3.org/Graphics/SVG/1.1/DTD/svg11.dtd">
<svg version="1.1" id="Layer_1" xmlns="http://www.w3.org/2000/svg" xmlns:xlink="http://www.w3.org/1999/xlink" x="0px" y="0px"
	 viewBox="0 0 86 86" enable-background="new 0 0 86 86" xml:space="preserve">
<g>
	<polygon fill="#FFFFFF" points="56,66.4 56,19.6 30,19.6 30,29.1 20.5,29.1 20.5,66.4 	"/>
	<path fill="#002226" d="M56,67.4H20.5c-0.6,0-1-0.5-1-1V29.1c0-0.6,0.5-1,1-1H29v-8.5c0-0.6,0.5-1,1-1h26c0.6,0,1,0.5,1,1v46.8
		C57,67,56.6,67.4,56,67.4z M21.6,65.4H55V20.6H31v8.5c0,0.6-0.5,1-1,1h-8.5V65.4z"/>
	<path fill="#002226" d="M20.5,29.9c-0.3,0-0.5-0.1-0.7-0.3c-0.4-0.4-0.4-1,0-1.4l9.3-9.3c0.4-0.4,1-0.4,1.4,0c0.4,0.4,0.4,1,0,1.4
		l-9.3,9.3C21.1,29.8,20.8,29.9,20.5,29.9z"/>
	<path fill="#002226" d="M49.5,40.2H27c-0.6,0-1-0.5-1-1s0.5-1,1-1h22.5c0.6,0,1,0.5,1,1S50.1,40.2,49.5,40.2z"/>
	<path fill="#002226" d="M49.5,53.7H27c-0.6,0-1-0.5-1-1c0-0.6,0.5-1,1-1h22.5c0.6,0,1,0.5,1,1C50.5,53.3,50.1,53.7,49.5,53.7z"/>
	<path fill="#002226" d="M49.5,47H27c-0.6,0-1-0.5-1-1c0-0.6,0.5-1,1-1h22.5c0.6,0,1,0.5,1,1C50.5,46.5,50.1,47,49.5,47z"/>
	<g>
		<path fill="#FFFFFF" d="M49.6,47.8c4.8,0,8.7-3.9,8.7-8.7c0-4.8-3.9-8.7-8.7-8.7c-4.8,0-8.7,3.9-8.7,8.7
			C40.9,43.9,44.8,47.8,49.6,47.8"/>
		<path fill="#002226" d="M49.6,48.8c-5.4,0-9.7-4.4-9.7-9.7s4.4-9.7,9.7-9.7s9.7,4.4,9.7,9.7S55,48.8,49.6,48.8z M49.6,31.4
			c-4.2,0-7.7,3.4-7.7,7.7s3.4,7.7,7.7,7.7s7.7-3.4,7.7-7.7S53.9,31.4,49.6,31.4z"/>
	</g>
	<path fill="#002226" d="M68.7,59.1c-0.3,0-0.7-0.1-0.9-0.4L56,47c-0.5-0.5-0.5-1.3,0-1.8c0.5-0.5,1.3-0.5,1.8,0l11.7,11.7
		c0.5,0.5,0.5,1.3,0,1.8C69.3,58.9,69,59.1,68.7,59.1z"/>
	<path fill="#002226" d="M68.2,59.6c-0.6,0-1.2-0.2-1.6-0.7l-8.3-8.3c-0.9-0.9-0.9-2.3,0-3.2c0.9-0.9,2.3-0.9,3.2,0l8.3,8.3
		c0.9,0.9,0.9,2.3,0,3.2C69.4,59.4,68.8,59.6,68.2,59.6z"/>
	<path fill="#002226" d="M52.9,41.5H41.9c-1.1,0-2-0.9-2-2s0.9-2,2-2h10.9c1.1,0,2,0.9,2,2S54,41.5,52.9,41.5z"/>
</g>
</svg>
