<?xml version="1.0" encoding="utf-8"?>
<!-- Generator: Adobe Illustrator 18.1.1, SVG Export Plug-In . SVG Version: 6.00 Build 0)  -->
<!DOCTYPE svg PUBLIC "-//W3C//DTD SVG 1.1//EN" "http://www.w3.org/Graphics/SVG/1.1/DTD/svg11.dtd">
<svg version="1.1" id="Layer_1" xmlns="http://www.w3.org/2000/svg" xmlns:xlink="http://www.w3.org/1999/xlink" x="0px" y="0px"
	 viewBox="0 0 86 86" enable-background="new 0 0 86 86" xml:space="preserve">
<g>
	<rect x="24.9" y="21.9" fill="#FFFFFF" width="35.5" height="45.5"/>
	<path fill="#002226" d="M60.4,68.3H24.9c-0.6,0-1-0.5-1-1V21.9c0-0.6,0.5-1,1-1h35.5c0.6,0,1,0.5,1,1v45.5
		C61.4,67.9,60.9,68.3,60.4,68.3z M25.9,66.3h33.4V22.9H25.9V66.3z"/>
	<rect x="33.1" y="18.7" fill="#FFFFFF" width="19.1" height="6.4"/>
	<path fill="#002226" d="M52.2,26.1H33.1c-0.6,0-1-0.5-1-1v-6.4c0-0.6,0.5-1,1-1h19.1c0.6,0,1,0.5,1,1v6.4
		C53.2,25.6,52.7,26.1,52.2,26.1z M34.1,24h17.1v-4.3H34.1V24z"/>
	<path fill="#002226" d="M55.7,32.9H29.6c-0.6,0-1-0.5-1-1s0.5-1,1-1h26.1c0.6,0,1,0.5,1,1S56.3,32.9,55.7,32.9z"/>
	<path fill="#002226" d="M55.7,37.5H29.6c-0.6,0-1-0.5-1-1c0-0.6,0.5-1,1-1h26.1c0.6,0,1,0.5,1,1C56.7,37,56.3,37.5,55.7,37.5z"/>
	<rect x="29.1" y="41.9" fill="#FDD03C" width="4.6" height="4.6"/>
	<path fill="#002226" d="M33.7,47.4h-4.6c-0.6,0-1-0.5-1-1v-4.6c0-0.6,0.5-1,1-1h4.6c0.6,0,1,0.5,1,1v4.6
		C34.7,47,34.2,47.4,33.7,47.4z M30.1,45.4h2.5v-2.5h-2.5V45.4z"/>
	<rect x="29.1" y="52.3" fill="#FFFFFF" width="4.6" height="4.6"/>
	<path fill="#002226" d="M33.7,57.9h-4.6c-0.6,0-1-0.5-1-1v-4.6c0-0.6,0.5-1,1-1h4.6c0.6,0,1,0.5,1,1v4.6
		C34.7,57.4,34.2,57.9,33.7,57.9z M30.1,55.8h2.5v-2.5h-2.5V55.8z"/>
	
		<rect x="52.1" y="25.8" transform="matrix(-0.7071 -0.7071 0.7071 -0.7071 64.501 108.2423)" fill="#FDD03C" width="5.2" height="30"/>
	<path fill="#002226" d="M45.9,54.2c-0.3,0-0.5-0.1-0.7-0.3l-3.7-3.7c-0.2-0.2-0.3-0.4-0.3-0.7c0-0.3,0.1-0.5,0.3-0.7l21.2-21.2
		c0.4-0.4,1-0.4,1.4,0l3.7,3.7c0.4,0.4,0.4,1,0,1.4L46.6,53.9C46.4,54.1,46.2,54.2,45.9,54.2z M43.7,49.5l2.2,2.2L65.7,32l-2.2-2.2
		L43.7,49.5z"/>
	
		<rect x="61" y="29.4" transform="matrix(-0.7071 -0.7071 0.7071 -0.7071 85.8338 99.4035)" fill="#FFFFFF" width="5.1" height="5.1"/>
	<path fill="#002226" d="M63.5,36.5c-0.3,0-0.5-0.1-0.7-0.3l-3.6-3.6c-0.2-0.2-0.3-0.4-0.3-0.7c0-0.3,0.1-0.5,0.3-0.7l3.6-3.6
		c0.4-0.4,1-0.4,1.4,0l3.6,3.6c0.4,0.4,0.4,1,0,1.4l-3.6,3.6C64,36.4,63.8,36.5,63.5,36.5z M61.4,31.9l2.1,2.1l2.1-2.1l-2.1-2.1
		L61.4,31.9z"/>
	<polygon fill="#FFFFFF" points="39.2,56.4 45.7,53.3 42.1,49.7 	"/>
	<path fill="#002226" d="M39.2,57.4c-0.3,0-0.5-0.1-0.7-0.3c-0.3-0.3-0.4-0.8-0.2-1.1l3-6.7c0.1-0.3,0.4-0.5,0.7-0.6
		c0.3-0.1,0.7,0,0.9,0.3l3.6,3.6c0.2,0.2,0.3,0.6,0.3,0.9c-0.1,0.3-0.3,0.6-0.6,0.7l-6.5,3.1C39.5,57.4,39.3,57.4,39.2,57.4z
		 M42.5,51.5l-1.2,2.8L44,53L42.5,51.5z"/>
</g>
</svg>
