<?xml version="1.0" encoding="utf-8"?>
<!-- Generator: Adobe Illustrator 18.1.1, SVG Export Plug-In . SVG Version: 6.00 Build 0)  -->
<!DOCTYPE svg PUBLIC "-//W3C//DTD SVG 1.1//EN" "http://www.w3.org/Graphics/SVG/1.1/DTD/svg11.dtd">
<svg version="1.1" id="Layer_1" xmlns="http://www.w3.org/2000/svg" xmlns:xlink="http://www.w3.org/1999/xlink" x="0px" y="0px"
	 viewBox="0 0 86 86" enable-background="new 0 0 86 86" xml:space="preserve">
<g>
	<path fill="#FFFFFF" d="M35.6,57.2c-4.3,1.2-8.8-1.2-10-5.5s1.2-8.8,5.5-10c4.3-1.2,8.8,1.2,10,5.5C42.4,51.5,39.9,56,35.6,57.2
		 M52,47.7l-1.9-6.6l-4.7,1.4c-0.7-1.2-1.5-2.2-2.5-3.1l2.4-4.3l-6-3.3L36.9,36c-1.3-0.3-2.6-0.5-4-0.5l-1.4-4.7L25,32.7l1.4,4.7
		c-1.2,0.7-2.2,1.5-3.1,2.5L19,37.6l-3.3,6l4.3,2.4c-0.3,1.3-0.5,2.6-0.5,4l-4.7,1.4l1.9,6.6l4.7-1.4c0.7,1.2,1.5,2.2,2.5,3.1
		l-2.4,4.3l6,3.3l2.4-4.3c1.3,0.3,2.6,0.5,4,0.5l1.4,4.7l6.6-1.9l-1.4-4.7c1.2-0.7,2.2-1.5,3.1-2.5l4.3,2.4l3.3-6L46.9,53
		c0.3-1.3,0.5-2.6,0.5-4L52,47.7z"/>
	<path fill="#002226" d="M35.2,69.1c-0.4,0-0.9-0.3-1-0.7l-1.1-4c-0.9,0-1.8-0.1-2.7-0.3l-2,3.6c-0.3,0.5-0.9,0.7-1.4,0.4l-6-3.3
		c-0.5-0.3-0.7-0.9-0.4-1.4l2-3.6c-0.6-0.7-1.2-1.4-1.7-2.1l-4,1.1c-0.3,0.1-0.5,0-0.8-0.1c-0.2-0.1-0.4-0.4-0.5-0.6l-1.9-6.6
		c-0.1-0.3,0-0.5,0.1-0.8c0.1-0.2,0.4-0.4,0.6-0.5l4-1.1c0-0.9,0.1-1.8,0.3-2.7l-3.6-2c-0.5-0.3-0.7-0.9-0.4-1.4l3.3-6
		c0.3-0.5,0.9-0.7,1.4-0.4l3.6,2c0.7-0.6,1.4-1.2,2.1-1.7l-1.1-4c-0.2-0.5,0.2-1.1,0.7-1.3l6.6-1.9c0.5-0.2,1.1,0.2,1.3,0.7l1.1,4
		c0.9,0,1.8,0.1,2.7,0.3l2-3.6c0.3-0.5,0.9-0.7,1.4-0.4l6,3.3c0.5,0.3,0.7,0.9,0.4,1.4l-2,3.6c0.6,0.7,1.2,1.4,1.7,2.1l4-1.1
		c0.3-0.1,0.5,0,0.8,0.1c0.2,0.1,0.4,0.4,0.5,0.6l1.9,6.6c0.1,0.3,0,0.5-0.1,0.8c-0.1,0.2-0.4,0.4-0.6,0.5l-4,1.1
		c0,0.9-0.1,1.8-0.3,2.7l3.6,2c0.2,0.1,0.4,0.4,0.5,0.6c0.1,0.3,0,0.5-0.1,0.8l-3.3,6c-0.3,0.5-0.9,0.7-1.4,0.4l-3.6-2
		c-0.7,0.6-1.4,1.2-2.1,1.7l1.1,4c0.2,0.5-0.2,1.1-0.7,1.3l-6.6,1.9C35.4,69.1,35.3,69.1,35.2,69.1z M33.8,62.4c0.5,0,0.9,0.3,1,0.7
		l1.1,3.8l4.6-1.3l-1.1-3.8c-0.1-0.4,0.1-0.9,0.5-1.2c1.1-0.6,2-1.4,2.9-2.3c0.3-0.3,0.8-0.4,1.2-0.2l3.4,1.9l2.3-4.2l-3.4-1.9
		c-0.4-0.2-0.6-0.7-0.5-1.2c0.3-1.2,0.5-2.5,0.4-3.7c0-0.5,0.3-0.9,0.7-1l3.8-1.1l-1.3-4.6l-3.8,1.1c-0.4,0.1-0.9-0.1-1.2-0.5
		c-0.6-1.1-1.4-2-2.3-2.9c-0.3-0.3-0.4-0.8-0.2-1.2l1.9-3.4l-4.2-2.3l-1.9,3.4c-0.2,0.4-0.7,0.6-1.2,0.5c-1.1-0.3-2.2-0.4-3.3-0.4
		l-0.4,0c-0.5,0-0.9-0.3-1-0.7l-1.1-3.8l-4.6,1.3l1.1,3.8c0.1,0.4-0.1,0.9-0.5,1.2c-1.1,0.6-2,1.4-2.9,2.3c-0.3,0.3-0.8,0.4-1.2,0.2
		l-3.4-1.9L17,43.1l3.4,1.9c0.4,0.2,0.6,0.7,0.5,1.2c-0.3,1.2-0.5,2.5-0.4,3.7c0,0.5-0.3,0.9-0.7,1L16,52l1.3,4.6l3.8-1.1
		c0.4-0.1,0.9,0.1,1.2,0.5c0.6,1.1,1.4,2,2.3,2.9c0.3,0.3,0.4,0.8,0.2,1.2l-1.9,3.4l4.2,2.3l1.9-3.4c0.2-0.4,0.7-0.6,1.2-0.5
		c1.1,0.3,2.2,0.4,3.3,0.4L33.8,62.4C33.8,62.4,33.8,62.4,33.8,62.4z M33.4,58.6c-4,0-7.6-2.7-8.7-6.6c-0.7-2.3-0.4-4.8,0.8-6.9
		c1.2-2.1,3.1-3.7,5.4-4.3c0.8-0.2,1.7-0.4,2.5-0.4c4,0,7.6,2.7,8.7,6.6c1.4,4.8-1.4,9.9-6.2,11.2C35.1,58.4,34.2,58.6,33.4,58.6z
		 M33.4,42.4c-0.7,0-1.3,0.1-1.9,0.3c-1.8,0.5-3.3,1.7-4.2,3.4c-0.9,1.6-1.1,3.6-0.6,5.4c0.9,3,3.6,5.1,6.8,5.1c0.7,0,1.3-0.1,2-0.3
		c3.7-1.1,5.9-5,4.8-8.7C39.3,44.5,36.5,42.4,33.4,42.4z"/>
	<path fill="#FFFFFF" d="M56.7,31.7c-1.1-1.5-0.8-3.7,0.8-4.8c1.5-1.1,3.7-0.8,4.8,0.8c1.1,1.5,0.8,3.7-0.8,4.8
		C60,33.6,57.8,33.2,56.7,31.7 M64.5,40.3l3.5-2.5l-1.8-2.5c0.5-0.7,1-1.4,1.3-2.1l3.1,0.5l0.7-4.2l-3.1-0.5
		c-0.1-0.8-0.3-1.7-0.6-2.4l2.5-1.8l-2.5-3.5l-2.5,1.8c-0.7-0.5-1.4-1-2.1-1.3l0.5-3.1l-4.2-0.7l-0.5,3.1c-0.8,0.1-1.7,0.3-2.4,0.6
		L54.4,19l-3.5,2.5l1.8,2.5c-0.5,0.7-1,1.4-1.3,2.1l-3.1-0.5L47.7,30l3.1,0.5c0.1,0.8,0.3,1.7,0.6,2.4l-2.5,1.8l2.5,3.5l2.5-1.8
		c0.7,0.5,1.4,1,2.1,1.3l-0.5,3.1l4.2,0.7l0.5-3.1c0.8-0.1,1.7-0.3,2.4-0.6L64.5,40.3z"/>
	<path fill="#002226" d="M59.8,42.4c-0.1,0-0.1,0-0.2,0l-4.2-0.7c-0.6-0.1-0.9-0.6-0.8-1.2l0.4-2.3c-0.4-0.2-0.7-0.4-1-0.6L52,39
		c-0.5,0.3-1.1,0.2-1.4-0.2L48,35.3c-0.3-0.5-0.2-1.1,0.2-1.4l1.9-1.4c-0.1-0.4-0.2-0.8-0.3-1.2L47.5,31c-0.3,0-0.5-0.2-0.7-0.4
		c-0.2-0.2-0.2-0.5-0.2-0.8l0.7-4.2c0.1-0.6,0.6-0.9,1.2-0.8l2.3,0.4c0.2-0.4,0.4-0.7,0.6-1l-1.4-1.9c-0.3-0.5-0.2-1.1,0.2-1.4
		l3.5-2.5C54,18,54.3,18,54.6,18c0.3,0,0.5,0.2,0.7,0.4l1.4,1.9c0.4-0.1,0.8-0.2,1.2-0.3l0.4-2.3c0-0.3,0.2-0.5,0.4-0.7
		c0.2-0.2,0.5-0.2,0.8-0.2l4.2,0.7c0.6,0.1,0.9,0.6,0.8,1.2L64,21c0.4,0.2,0.7,0.4,1,0.6l1.9-1.4c0.2-0.2,0.5-0.2,0.8-0.2
		c0.3,0,0.5,0.2,0.7,0.4l2.5,3.5c0.2,0.2,0.2,0.5,0.2,0.8c0,0.3-0.2,0.5-0.4,0.7l-1.9,1.4c0.1,0.4,0.2,0.8,0.3,1.2l2.3,0.4
		c0.6,0.1,0.9,0.6,0.8,1.2l-0.7,4.2c-0.1,0.6-0.6,0.9-1.2,0.8l-2.3-0.4c-0.2,0.4-0.4,0.7-0.6,1l1.4,1.9c0.3,0.5,0.2,1.1-0.2,1.4
		l-3.5,2.5c-0.2,0.2-0.5,0.2-0.8,0.2c-0.3,0-0.5-0.2-0.7-0.4L62.3,39c-0.4,0.1-0.8,0.2-1.2,0.3l-0.4,2.3c0,0.3-0.2,0.5-0.4,0.7
		C60.2,42.4,60,42.4,59.8,42.4z M56.7,39.9l2.2,0.4l0.3-2.1c0.1-0.5,0.4-0.8,0.9-0.9c0.7-0.1,1.5-0.2,2.2-0.5c0.4-0.2,0.9,0,1.2,0.3
		l1.2,1.7l1.8-1.3l-1.2-1.7c-0.3-0.4-0.3-0.9,0-1.3c0.5-0.6,0.9-1.2,1.2-1.9c0.2-0.4,0.6-0.7,1.1-0.6l2.1,0.3l0.4-2.2L68,29.9
		c-0.5-0.1-0.8-0.4-0.9-0.9c-0.1-0.8-0.2-1.5-0.5-2.2c-0.2-0.4,0-0.9,0.3-1.2l1.7-1.2l-1.3-1.8l-1.7,1.2c-0.4,0.3-0.9,0.3-1.3,0
		c-0.6-0.5-1.2-0.9-1.9-1.2c-0.4-0.2-0.7-0.6-0.6-1.1l0.3-2.1L60,19l-0.3,2.1c-0.1,0.5-0.4,0.8-0.9,0.9c-0.7,0.1-1.5,0.2-2.2,0.5
		c-0.4,0.2-0.9,0-1.2-0.3l-1.2-1.7l-1.8,1.3l1.2,1.7c0.3,0.4,0.3,0.9,0,1.3c-0.5,0.6-0.9,1.2-1.2,1.9c-0.2,0.4-0.6,0.7-1.1,0.6
		l-2.1-0.3l-0.4,2.2l2.1,0.3c0.5,0.1,0.8,0.5,0.9,0.9c0.1,0.7,0.2,1.5,0.5,2.2c0.2,0.4,0,0.9-0.3,1.2l-1.7,1.2l1.3,1.8l1.7-1.2
		c0.4-0.3,0.9-0.3,1.3,0c0.6,0.5,1.2,0.9,1.9,1.2c0.4,0.2,0.7,0.6,0.6,1.1L56.7,39.9z M59.5,34.1c-1.4,0-2.8-0.7-3.6-1.8
		c-1.4-2-1-4.8,1-6.3c1.9-1.4,4.9-0.9,6.3,1c0.7,1,1,2.1,0.8,3.3s-0.8,2.2-1.8,2.9C61.3,33.8,60.4,34.1,59.5,34.1z M59.5,27.2
		c-0.5,0-1,0.2-1.4,0.5c-1.1,0.8-1.3,2.3-0.5,3.4c0.8,1.1,2.4,1.3,3.4,0.5c0.5-0.4,0.9-0.9,1-1.6c0.1-0.6-0.1-1.3-0.4-1.8
		C61,27.6,60.2,27.2,59.5,27.2z"/>
</g>
</svg>
