<?xml version="1.0" encoding="utf-8"?>
<!-- Generator: Adobe Illustrator 18.1.1, SVG Export Plug-In . SVG Version: 6.00 Build 0)  -->
<!DOCTYPE svg PUBLIC "-//W3C//DTD SVG 1.1//EN" "http://www.w3.org/Graphics/SVG/1.1/DTD/svg11.dtd">
<svg version="1.1" id="Layer_1" xmlns="http://www.w3.org/2000/svg" xmlns:xlink="http://www.w3.org/1999/xlink" x="0px" y="0px"
	 viewBox="0 0 86 86" enable-background="new 0 0 86 86" xml:space="preserve">
<g>
	<path fill="#002226" d="M28.3,71.3c-0.1,0-0.2,0-0.3,0c-0.5-0.1-0.9-0.7-0.7-1.2L42,15.4c0.2-0.9,1.7-0.9,2,0L58.7,70
		c0.1,0.5-0.2,1.1-0.7,1.2c-0.5,0.1-1.1-0.2-1.2-0.7L43,19.6L29.3,70.5C29.2,71,28.8,71.3,28.3,71.3z"/>
	<path fill="#002226" d="M54,62.6h-23c-0.6,0-1-0.5-1-1c0-0.6,0.5-1,1-1h23c0.6,0,1,0.5,1,1C55.1,62.2,54.6,62.6,54,62.6z"/>
	<rect x="20.9" y="24" fill="#FFFFFF" width="44.3" height="29.4"/>
	<path fill="#002226" d="M65.1,54.4H20.9c-0.6,0-1-0.5-1-1V24c0-0.6,0.5-1,1-1h44.3c0.6,0,1,0.5,1,1v29.4
		C66.1,54,65.7,54.4,65.1,54.4z M21.9,52.4h42.2V25H21.9V52.4z"/>
	<polygon fill="#FDD03C" points="39,43.9 49,38.7 39,33.5 	"/>
	<path fill="#002226" d="M39,44.9c-0.2,0-0.4,0-0.5-0.1c-0.3-0.2-0.5-0.5-0.5-0.9V33.5c0-0.4,0.2-0.7,0.5-0.9c0.3-0.2,0.7-0.2,1,0
		l10,5.2c0.3,0.2,0.5,0.5,0.5,0.9c0,0.4-0.2,0.7-0.5,0.9l-10,5.2C39.3,44.9,39.1,44.9,39,44.9z M40,35.2v7.1l6.8-3.5L40,35.2z"/>
</g>
</svg>
