<?xml version="1.0" encoding="utf-8"?>
<!-- Generator: Adobe Illustrator 18.1.1, SVG Export Plug-In . SVG Version: 6.00 Build 0)  -->
<!DOCTYPE svg PUBLIC "-//W3C//DTD SVG 1.1//EN" "http://www.w3.org/Graphics/SVG/1.1/DTD/svg11.dtd">
<svg version="1.1" id="Layer_1" xmlns="http://www.w3.org/2000/svg" xmlns:xlink="http://www.w3.org/1999/xlink" x="0px" y="0px"
	 viewBox="0 0 86 86" enable-background="new 0 0 86 86" xml:space="preserve">
<g>
	<rect x="23" y="44.5" fill="#FFFFFF" width="40" height="17.3"/>
	<path fill="#002226" d="M63,62.8H23c-0.6,0-1-0.5-1-1V44.5c0-0.6,0.5-1,1-1h40c0.6,0,1,0.5,1,1v17.3C64,62.4,63.6,62.8,63,62.8z
		 M24,60.8h38V45.5H24V60.8z"/>
	<path fill="#002226" d="M30.6,57c-0.6,0-1-0.5-1-1v-5.7c0-0.6,0.5-1,1-1c0.6,0,1,0.5,1,1V56C31.6,56.6,31.2,57,30.6,57z"/>
	<path fill="#002226" d="M33.5,54.2h-5.7c-0.6,0-1-0.5-1-1s0.5-1,1-1h5.7c0.6,0,1,0.5,1,1S34,54.2,33.5,54.2z"/>
	<g>
		<path fill="#002226" d="M52.7,54.9c1,0,1.7-0.8,1.7-1.7s-0.8-1.7-1.7-1.7c-1,0-1.7,0.8-1.7,1.7S51.8,54.9,52.7,54.9"/>
		<path fill="#002226" d="M57.5,54.9c1,0,1.7-0.8,1.7-1.7s-0.8-1.7-1.7-1.7c-1,0-1.7,0.8-1.7,1.7S56.6,54.9,57.5,54.9"/>
	</g>
	<path fill="#002226" d="M44.7,54.2h-3.4c-0.6,0-1-0.5-1-1s0.5-1,1-1h3.4c0.6,0,1,0.5,1,1S45.3,54.2,44.7,54.2z"/>
	<g>
		<path fill="#002226" d="M37.5,44.6c-0.6,0-1-0.5-1-1V33.3c0-2.4,1.9-4.3,4.3-4.3c2.3,0,4.3,1.9,4.3,4.3v1.6c0,1.2,1,2.2,2.2,2.2
			s2.2-1,2.2-2.2V24.2c0-0.6,0.5-1,1-1c0.6,0,1,0.5,1,1v10.7c0,2.4-1.9,4.3-4.3,4.3c-2.3,0-4.3-1.9-4.3-4.3v-1.6
			c0-1.2-1-2.2-2.2-2.2c-1.2,0-2.2,1-2.2,2.2v10.3C38.6,44.2,38.1,44.6,37.5,44.6z"/>
	</g>
</g>
</svg>
