<?xml version="1.0" encoding="utf-8"?>
<!-- Generator: Adobe Illustrator 18.1.1, SVG Export Plug-In . SVG Version: 6.00 Build 0)  -->
<!DOCTYPE svg PUBLIC "-//W3C//DTD SVG 1.1//EN" "http://www.w3.org/Graphics/SVG/1.1/DTD/svg11.dtd">
<svg version="1.1" id="Layer_1" xmlns="http://www.w3.org/2000/svg" xmlns:xlink="http://www.w3.org/1999/xlink" x="0px" y="0px"
	 viewBox="0 0 86 86" enable-background="new 0 0 86 86" xml:space="preserve">
<g>
	<path fill="#002226" d="M24.9,63.7c-0.6,0-1-0.5-1-1V23.3c0-0.6,0.5-1,1-1s1,0.5,1,1v39.3C26,63.2,25.5,63.7,24.9,63.7z"/>
	<path fill="#002226" d="M43,63.7c-0.6,0-1-0.5-1-1V23.3c0-0.6,0.5-1,1-1s1,0.5,1,1v39.3C44,63.2,43.6,63.7,43,63.7z"/>
	<path fill="#002226" d="M61.1,63.7c-0.6,0-1-0.5-1-1V23.3c0-0.6,0.5-1,1-1s1,0.5,1,1v39.3C62.1,63.2,61.6,63.7,61.1,63.7z"/>
	<rect x="55.7" y="50.6" fill="#FFFFFF" width="10.9" height="6"/>
	<path fill="#002226" d="M66.6,57.6H55.7c-0.6,0-1-0.5-1-1v-6c0-0.6,0.5-1,1-1h10.9c0.6,0,1,0.5,1,1v6
		C67.7,57.2,67.2,57.6,66.6,57.6z M56.7,55.6h8.9v-4h-8.9V55.6z"/>
	<rect x="37.5" y="34.7" fill="#FFFFFF" width="10.9" height="6"/>
	<path fill="#002226" d="M48.5,41.7H37.5c-0.6,0-1-0.5-1-1v-6c0-0.6,0.5-1,1-1h10.9c0.6,0,1,0.5,1,1v6C49.5,41.3,49,41.7,48.5,41.7z
		 M38.5,39.7h8.9v-4h-8.9V39.7z"/>
	<rect x="19.4" y="43.8" fill="#FFFFFF" width="10.9" height="6"/>
	<path fill="#002226" d="M30.3,50.8H19.4c-0.6,0-1-0.5-1-1v-6c0-0.6,0.5-1,1-1h10.9c0.6,0,1,0.5,1,1v6
		C31.3,50.4,30.9,50.8,30.3,50.8z M20.4,48.8h8.9v-4h-8.9V48.8z"/>
</g>
</svg>
