<?xml version="1.0" encoding="utf-8"?>
<!-- Generator: Adobe Illustrator 18.1.1, SVG Export Plug-In . SVG Version: 6.00 Build 0)  -->
<!DOCTYPE svg PUBLIC "-//W3C//DTD SVG 1.1//EN" "http://www.w3.org/Graphics/SVG/1.1/DTD/svg11.dtd">
<svg version="1.1" id="Layer_1" xmlns="http://www.w3.org/2000/svg" xmlns:xlink="http://www.w3.org/1999/xlink" x="0px" y="0px"
	 viewBox="0 0 50 50" enable-background="new 0 0 50 50" xml:space="preserve">
<g>
	<path fill="#FFFFFF" d="M12.9,26.2c-0.1,0-0.2,0-0.3,0c-0.4-0.1-0.7-0.5-0.7-0.9V11.4c0-0.5,0.4-1,1-1h17.9c0.5,0,1,0.4,1,1v9.5
		c0,0.5-0.4,1-1,1H16.2l-2.5,3.9C13.5,26.1,13.2,26.2,12.9,26.2z M13.9,12.4v9.5l1-1.5c0.2-0.3,0.5-0.5,0.8-0.5h14.2v-7.5H13.9z"/>
	<path fill="#FFFFFF" d="M37.1,39.6c-0.3,0-0.6-0.2-0.8-0.5l-2.5-3.9H19.2c-0.5,0-1-0.4-1-1v-8.9c0-0.5,0.4-1,1-1h17.9
		c0.5,0,1,0.4,1,1v13.3c0,0.4-0.3,0.8-0.7,0.9C37.3,39.6,37.2,39.6,37.1,39.6z M20.2,33.2h14.2c0.3,0,0.6,0.2,0.8,0.5l1,1.5v-9h-16
		V33.2z"/>
</g>
</svg>
