<?xml version="1.0" encoding="utf-8"?>
<!-- Generator: Adobe Illustrator 18.1.1, SVG Export Plug-In . SVG Version: 6.00 Build 0)  -->
<!DOCTYPE svg PUBLIC "-//W3C//DTD SVG 1.1//EN" "http://www.w3.org/Graphics/SVG/1.1/DTD/svg11.dtd">
<svg version="1.1" id="Layer_1" xmlns="http://www.w3.org/2000/svg" xmlns:xlink="http://www.w3.org/1999/xlink" x="0px" y="0px"
	 viewBox="0 0 50 50" enable-background="new 0 0 50 50" xml:space="preserve">
<path fill="#FFFFFF" d="M37.1,33.9l-5.5-5.5c-0.6-0.6-1.5-0.8-2.2-0.5l-2.1-2.1c1.1-1.4,1.7-3.1,1.7-5c0-4.6-3.7-8.4-8.4-8.4
	c-4.6,0-8.4,3.7-8.4,8.4c0,4.6,3.7,8.4,8.4,8.4c2,0,3.9-0.7,5.3-1.9l2.1,2.1c-0.3,0.8-0.1,1.6,0.5,2.2l5.5,5.5
	c0.4,0.4,1,0.6,1.5,0.6s1.1-0.2,1.5-0.6C38,36.1,38,34.8,37.1,33.9z M20.6,27.1c-3.5,0-6.4-2.9-6.4-6.4c0-3.5,2.9-6.4,6.4-6.4
	c3.5,0,6.4,2.9,6.4,6.4C27,24.3,24.1,27.1,20.6,27.1z"/>
</svg>
