<?xml version="1.0" encoding="utf-8"?>
<!-- Generator: Adobe Illustrator 18.1.1, SVG Export Plug-In . SVG Version: 6.00 Build 0)  -->
<!DOCTYPE svg PUBLIC "-//W3C//DTD SVG 1.1//EN" "http://www.w3.org/Graphics/SVG/1.1/DTD/svg11.dtd">
<svg version="1.1" id="Layer_1" xmlns="http://www.w3.org/2000/svg" xmlns:xlink="http://www.w3.org/1999/xlink" x="0px" y="0px"
	 viewBox="0 0 50 50" enable-background="new 0 0 50 50" xml:space="preserve">
<g>
	<path fill="#FFFFFF" d="M35.7,38.8H20.5c-0.5,0-1-0.4-1-1V18.6c0-0.5,0.4-1,1-1h15.2c0.5,0,1,0.4,1,1v19.2
		C36.6,38.3,36.2,38.8,35.7,38.8z M21.4,36.8h13.3V19.5H21.4V36.8z"/>
	<path fill="#FFFFFF" d="M17.4,35.6c-0.5,0-1-0.4-1-1V15.4c0-0.5,0.4-1,1-1h15.2c0.5,0,1,0.4,1,1s-0.4,1-1,1H18.4v18.3
		C18.4,35.2,17.9,35.6,17.4,35.6z"/>
	<g>
		<path fill="#FFFFFF" d="M14.3,32.4c-0.5,0-1-0.4-1-1V12.2c0-0.5,0.4-1,1-1h15.2c0.5,0,1,0.4,1,1s-0.4,1-1,1H15.3v18.3
			C15.3,32,14.9,32.4,14.3,32.4z"/>
	</g>
	<g>
		<path fill="#FFFFFF" d="M32.3,23.5h-8.4c-0.5,0-1-0.4-1-1s0.4-1,1-1h8.4c0.5,0,1,0.4,1,1S32.8,23.5,32.3,23.5z"/>
		<path fill="#FFFFFF" d="M32.3,27.3h-8.4c-0.5,0-1-0.4-1-1s0.4-1,1-1h8.4c0.5,0,1,0.4,1,1S32.8,27.3,32.3,27.3z"/>
		<path fill="#FFFFFF" d="M32.3,31h-8.4c-0.5,0-1-0.4-1-1s0.4-1,1-1h8.4c0.5,0,1,0.4,1,1S32.8,31,32.3,31z"/>
		<path fill="#FFFFFF" d="M32.3,34.8h-8.4c-0.5,0-1-0.4-1-1s0.4-1,1-1h8.4c0.5,0,1,0.4,1,1S32.8,34.8,32.3,34.8z"/>
	</g>
</g>
</svg>
