<?xml version="1.0" encoding="utf-8"?>
<!-- Generator: Adobe Illustrator 18.1.1, SVG Export Plug-In . SVG Version: 6.00 Build 0)  -->
<!DOCTYPE svg PUBLIC "-//W3C//DTD SVG 1.1//EN" "http://www.w3.org/Graphics/SVG/1.1/DTD/svg11.dtd">
<svg version="1.1" id="Layer_1" xmlns="http://www.w3.org/2000/svg" xmlns:xlink="http://www.w3.org/1999/xlink" x="0px" y="0px"
	 viewBox="0 0 50 50" enable-background="new 0 0 50 50" xml:space="preserve">
<path fill="#FFFFFF" d="M25,11c-8.5,0-15.4,6.9-15.4,15.4v7.3c0,0.5,0.4,1,1,1h2.3c0.1,0,0.1,0,0.2,0v2.1c0,1.2,1,2.2,2.2,2.2
	s2.2-1,2.2-2.2v-6.1c0-1.2-1-2.2-2.2-2.2s-2.2,1-2.2,2.2v2.1c-0.1,0-0.1,0-0.2,0h-1.3v-6.3C11.5,19,17.6,13,25,13s13.5,6,13.5,13.5
	v6.3h-1.3c0,0-0.1,0-0.1,0v-2.1c0-1.2-1-2.2-2.2-2.2s-2.2,1-2.2,2.2v6.1c0,1.2,1,2.2,2.2,2.2s2.2-1,2.2-2.2v-2.1c0,0,0.1,0,0.1,0
	h2.3c0.5,0,1-0.4,1-1v-7.3C40.4,17.9,33.5,11,25,11z"/>
</svg>
