<?xml version="1.0" encoding="utf-8"?>
<!-- Generator: Adobe Illustrator 18.1.1, SVG Export Plug-In . SVG Version: 6.00 Build 0)  -->
<!DOCTYPE svg PUBLIC "-//W3C//DTD SVG 1.1//EN" "http://www.w3.org/Graphics/SVG/1.1/DTD/svg11.dtd">
<svg version="1.1" id="Layer_1" xmlns="http://www.w3.org/2000/svg" xmlns:xlink="http://www.w3.org/1999/xlink" x="0px" y="0px"
	 viewBox="0 0 50 50" enable-background="new 0 0 50 50" xml:space="preserve">
<path fill="#FFFFFF" d="M21,40.9c-0.1,0-0.3,0-0.4-0.1c-0.4-0.2-0.6-0.6-0.6-1L21.5,28H16c-0.4,0-0.7-0.2-0.9-0.5
	c-0.2-0.3-0.1-0.7,0.1-1L28.2,9.5c0.3-0.3,0.7-0.5,1.1-0.3c0.4,0.2,0.7,0.6,0.6,1l-1.5,12.3H34c0.4,0,0.7,0.2,0.9,0.5
	c0.2,0.3,0.1,0.7-0.1,1L21.8,40.5C21.6,40.8,21.3,40.9,21,40.9z M18,26h4.6c0.3,0,0.5,0.1,0.7,0.3c0.2,0.2,0.3,0.5,0.2,0.8l-1.2,9.5
	L32,24.4h-4.6c-0.3,0-0.5-0.1-0.7-0.3c-0.2-0.2-0.3-0.5-0.2-0.8l1.2-9.8L18,26z"/>
</svg>
