<?xml version="1.0" encoding="utf-8"?>
<!-- Generator: Adobe Illustrator 18.1.1, SVG Export Plug-In . SVG Version: 6.00 Build 0)  -->
<!DOCTYPE svg PUBLIC "-//W3C//DTD SVG 1.1//EN" "http://www.w3.org/Graphics/SVG/1.1/DTD/svg11.dtd">
<svg version="1.1" id="Layer_1" xmlns="http://www.w3.org/2000/svg" xmlns:xlink="http://www.w3.org/1999/xlink" x="0px" y="0px"
	 viewBox="0 0 50 50" enable-background="new 0 0 50 50" xml:space="preserve">
<path fill="#FFFFFF" d="M39.6,33.8L30,24.2l8.8-8.8c0.2-0.2,0.3-0.5,0.3-0.7c0-0.3-0.1-0.5-0.3-0.7L36,11.2
	c-0.2-0.2-0.4-0.3-0.7-0.3c0,0,0,0,0,0c0,0,0,0,0,0c-0.3,0-0.5,0.1-0.7,0.3L25.7,20l-9.6-9.6c-0.4-0.4-1-0.4-1.4,0l-4.4,4.4
	c-0.2,0.2-0.3,0.4-0.3,0.7c0,0.3,0.1,0.5,0.3,0.7l9.6,9.6l-6.4,6.4c-0.1,0.1-0.2,0.2-0.2,0.3c0,0,0,0.1-0.1,0.1L11,37.7
	c-0.2,0.4-0.1,0.8,0.2,1.1c0.2,0.2,0.4,0.3,0.7,0.3c0.1,0,0.3,0,0.4-0.1l5.1-2.4c0,0,0,0,0.1-0.1c0.1,0,0.3-0.1,0.4-0.2l6.4-6.4
	l9.6,9.6c0.2,0.2,0.4,0.3,0.7,0.3s0.5-0.1,0.7-0.3l4.4-4.4c0.2-0.2,0.3-0.4,0.3-0.7C39.9,34.3,39.8,34,39.6,33.8z M35.2,13.3
	l1.4,1.4l-1.4,1.4l-1.4-1.4L35.2,13.3z M20.8,23.9c0.1,0,0.2-0.1,0.2-0.1l0.4-0.4c0.4-0.4,0.4-1,0-1.4c-0.4-0.4-1-0.4-1.4,0
	l-0.4,0.4c-0.1,0.1-0.1,0.1-0.1,0.2l-0.9-0.9c0.1,0,0.2-0.1,0.2-0.1l0.4-0.4c0.4-0.4,0.4-1,0-1.4c-0.4-0.4-1-0.4-1.4,0l-0.4,0.4
	c-0.1,0.1-0.1,0.1-0.1,0.2l-0.9-0.9c0.1,0,0.2-0.1,0.2-0.1l0.4-0.4c0.4-0.4,0.4-1,0-1.4c-0.4-0.4-1-0.4-1.4,0l-0.4,0.4
	c-0.1,0.1-0.1,0.1-0.1,0.2l-0.9-0.9c0.1,0,0.2-0.1,0.2-0.1l0.4-0.4c0.4-0.4,0.4-1,0-1.4c-0.4-0.4-1-0.4-1.4,0l-0.4,0.4
	c-0.1,0.1-0.1,0.1-0.1,0.2l-0.5-0.5l3-3l8.9,8.9l-3,3L20.8,23.9z M32.5,16l1.5,1.5L17.2,34.3l-1.5-1.5L32.5,16z M13.9,36.1l0.7-1.5
	l0.8,0.8L13.9,36.1z M34.5,37.5l-0.5-0.5c0.1,0,0.2-0.1,0.2-0.1l0.4-0.4c0.4-0.4,0.4-1,0-1.4c-0.4-0.4-1-0.4-1.4,0l-0.4,0.4
	c-0.1,0.1-0.1,0.1-0.1,0.2l-0.9-0.9c0.1,0,0.2-0.1,0.2-0.1l0.4-0.4c0.4-0.4,0.4-1,0-1.4c-0.4-0.4-1-0.4-1.4,0l-0.4,0.4
	c-0.1,0.1-0.1,0.1-0.1,0.2l-0.9-0.9c0.1,0,0.2-0.1,0.2-0.1l0.4-0.4c0.4-0.4,0.4-1,0-1.4c-0.4-0.4-1-0.4-1.4,0l-0.4,0.4
	c-0.1,0.1-0.1,0.1-0.1,0.2l-0.9-0.9c0.1,0,0.2-0.1,0.2-0.1l0.4-0.4c0.4-0.4,0.4-1,0-1.4c-0.4-0.4-1-0.4-1.4,0l-0.4,0.4
	c-0.1,0.1-0.1,0.1-0.1,0.2l-0.6-0.6l3-3l8.9,8.9L34.5,37.5z"/>
</svg>
