<?xml version="1.0" encoding="utf-8"?>
<!-- Generator: Adobe Illustrator 18.1.1, SVG Export Plug-In . SVG Version: 6.00 Build 0)  -->
<!DOCTYPE svg PUBLIC "-//W3C//DTD SVG 1.1//EN" "http://www.w3.org/Graphics/SVG/1.1/DTD/svg11.dtd">
<svg version="1.1" id="Layer_1" xmlns="http://www.w3.org/2000/svg" xmlns:xlink="http://www.w3.org/1999/xlink" x="0px" y="0px"
	 viewBox="0 0 50 50" enable-background="new 0 0 50 50" xml:space="preserve">
<path fill="#FFFFFF" d="M36.2,36.4L26,23.5v-4.9h5.1c0.5,0,1-0.4,1-1v-3.8c0-0.5-0.4-1-1-1h-5.2C25.8,12.4,25.5,12,25,12
	c-0.5,0-1,0.4-1,1v0.8v3.8v5.9L13.8,36.4c-0.3,0.4-0.3,1,0.2,1.4c0.4,0.3,1,0.3,1.4-0.2l5.4-6.8l4,1.4c0.1,0,0.2,0.1,0.3,0.1
	c0.1,0,0.2,0,0.3-0.1l4-1.4l5.3,6.8c0.2,0.2,0.5,0.4,0.8,0.4c0.2,0,0.4-0.1,0.6-0.2C36.5,37.4,36.5,36.8,36.2,36.4z M30.1,16.6H26
	v-1.9h4.2V16.6z M25,30.3l-3-1.1l3-3.8l3.1,3.9L25,30.3z"/>
</svg>
