<?xml version="1.0" encoding="utf-8"?>
<!-- Generator: Adobe Illustrator 18.1.1, SVG Export Plug-In . SVG Version: 6.00 Build 0)  -->
<!DOCTYPE svg PUBLIC "-//W3C//DTD SVG 1.1//EN" "http://www.w3.org/Graphics/SVG/1.1/DTD/svg11.dtd">
<svg version="1.1" id="Layer_1" xmlns="http://www.w3.org/2000/svg" xmlns:xlink="http://www.w3.org/1999/xlink" x="0px" y="0px"
	 viewBox="0 0 50 50" enable-background="new 0 0 50 50" xml:space="preserve">
<g>
	<path fill="#FFFFFF" d="M41,36.7l-5.7-9.8c-0.3-0.5-0.9-0.6-1.3-0.4c-0.5,0.3-0.6,0.9-0.4,1.3l4.8,8.4h-9.3v-0.9
		c0-0.3-0.2-0.7-0.5-0.8c-0.3-0.2-0.7-0.2-1,0l-3.2,1.8c-0.1,0-0.1,0.1-0.2,0.1c0,0,0,0,0,0c-0.1,0.1-0.1,0.2-0.2,0.3
		c0,0,0,0.1,0,0.1c0,0.1-0.1,0.2-0.1,0.3s0,0.2,0.1,0.3c0,0,0,0.1,0,0.1c0,0.1,0.1,0.2,0.2,0.3c0,0,0,0,0,0c0.1,0.1,0.1,0.1,0.2,0.2
		l3.2,1.8c0.1,0.1,0.3,0.1,0.5,0.1c0.2,0,0.3,0,0.5-0.1c0.3-0.2,0.5-0.5,0.5-0.8v-0.9h11c0.3,0,0.7-0.2,0.8-0.5
		C41.2,37.4,41.2,37,41,36.7z"/>
	<path fill="#FFFFFF" d="M19,21.3c0.5,0.3,1.1,0.1,1.3-0.4l4.7-8.1l4.7,8.1l-0.7,0.4c-0.3,0.2-0.5,0.5-0.5,0.8s0.2,0.7,0.5,0.8
		l3.2,1.8c0,0,0,0,0,0c0,0,0.1,0,0.2,0.1c0.1,0,0.2,0.1,0.3,0.1c0,0,0,0,0,0s0,0,0,0c0.1,0,0.2,0,0.2,0c0.1,0,0.2-0.1,0.2-0.1
		c0.1-0.1,0.2-0.1,0.3-0.2c0,0,0,0,0-0.1c0.1-0.2,0.2-0.3,0.2-0.5v-3.7c0-0.3-0.2-0.7-0.5-0.8c-0.3-0.2-0.7-0.2-1,0L31.3,20
		l-5.5-9.5c-0.3-0.6-1.3-0.6-1.7,0L18.7,20C18.4,20.4,18.6,21,19,21.3z"/>
	<path fill="#FFFFFF" d="M21.5,36.2h-9.9l4.7-8.1l0.7,0.4c0.2,0.1,0.3,0.1,0.5,0.1s0.3,0,0.5-0.1c0.3-0.2,0.5-0.5,0.5-0.8v-3.7
		c0-0.2-0.1-0.4-0.2-0.6c0,0,0,0,0-0.1c-0.1-0.1-0.2-0.2-0.3-0.2c-0.1-0.1-0.2-0.1-0.3-0.1c0,0-0.1,0-0.1,0c-0.1,0-0.2,0-0.3,0
		c0,0,0,0,0,0c-0.1,0-0.1,0-0.2,0.1l-3.2,1.8c-0.3,0.2-0.5,0.5-0.5,0.8c0,0.3,0.2,0.7,0.5,0.8l0.7,0.4L9,36.7c-0.2,0.3-0.2,0.7,0,1
		c0.2,0.3,0.5,0.5,0.8,0.5h11.6c0.5,0,1-0.4,1-1S22,36.2,21.5,36.2z"/>
</g>
</svg>
