<?xml version="1.0" encoding="utf-8"?>
<!-- Generator: Adobe Illustrator 18.1.1, SVG Export Plug-In . SVG Version: 6.00 Build 0)  -->
<!DOCTYPE svg PUBLIC "-//W3C//DTD SVG 1.1//EN" "http://www.w3.org/Graphics/SVG/1.1/DTD/svg11.dtd">
<svg version="1.1" id="Layer_1" xmlns="http://www.w3.org/2000/svg" xmlns:xlink="http://www.w3.org/1999/xlink" x="0px" y="0px"
	 viewBox="0 0 50 50" enable-background="new 0 0 50 50" xml:space="preserve">
<g>
	<path fill="#FFFFFF" d="M44.2,24.2l-7.3-4.7c-0.5-0.3-1.1-0.2-1.3,0.3c-0.3,0.5-0.2,1.1,0.3,1.3l6.1,3.9l-6.1,3.9
		c-0.5,0.3-0.6,0.9-0.3,1.3c0.2,0.3,0.5,0.4,0.8,0.4c0.2,0,0.4,0,0.5-0.2l7.3-4.7c0.3-0.2,0.4-0.5,0.4-0.8S44.5,24.4,44.2,24.2z"/>
	<path fill="#FFFFFF" d="M14.4,19.8c-0.3-0.5-0.9-0.6-1.3-0.3l-7.3,4.7c-0.3,0.2-0.4,0.5-0.4,0.8s0.2,0.6,0.4,0.8l7.3,4.7
		c0.2,0.1,0.3,0.2,0.5,0.2c0.3,0,0.6-0.2,0.8-0.4c0.3-0.5,0.2-1.1-0.3-1.3L8.1,25l6.1-3.9C14.6,20.8,14.7,20.2,14.4,19.8z"/>
	<path fill="#FFFFFF" d="M29.1,12.7c-0.5-0.2-1.1,0.1-1.2,0.6l-7.5,22.8c-0.2,0.5,0.1,1.1,0.6,1.2c0.1,0,0.2,0,0.3,0
		c0.4,0,0.8-0.3,0.9-0.7l7.5-22.8C29.9,13.4,29.6,12.8,29.1,12.7z"/>
</g>
</svg>
