<?xml version="1.0" encoding="utf-8"?>
<!-- Generator: Adobe Illustrator 18.1.1, SVG Export Plug-In . SVG Version: 6.00 Build 0)  -->
<!DOCTYPE svg PUBLIC "-//W3C//DTD SVG 1.1//EN" "http://www.w3.org/Graphics/SVG/1.1/DTD/svg11.dtd">
<svg version="1.1" id="Layer_1" xmlns="http://www.w3.org/2000/svg" xmlns:xlink="http://www.w3.org/1999/xlink" x="0px" y="0px"
	 viewBox="0 0 50 50" enable-background="new 0 0 50 50" xml:space="preserve">
<g>
	<path fill="#FFFFFF" d="M31.8,34.8c0-1.3-0.1-4.2-1.6-6.6c-1.4-2.2-1.3-5.1-1.2-6.2h1.7c0.3,0,0.6-0.3,0.6-0.6l0.1-1.9
		c0-0.2-0.1-0.3-0.2-0.5c-0.1-0.1-0.2-0.2-0.4-0.2v-6.9c0-0.4-0.3-0.6-0.6-0.6h-2.2c-0.4,0-0.6,0.3-0.6,0.6v1.6h-0.5v-1.6
		c0-0.4-0.3-0.6-0.6-0.6H25h-1.1c-0.4,0-0.6,0.3-0.6,0.6v1.6h-0.5v-1.6c0-0.4-0.3-0.6-0.6-0.6h-2.2c-0.4,0-0.6,0.3-0.6,0.6v6.9
		c-0.1,0-0.3,0.1-0.4,0.2c-0.1,0.1-0.2,0.3-0.2,0.5l0.1,1.9c0,0.3,0.3,0.6,0.6,0.6h1.7c0.1,1.2,0.2,4.1-1.2,6.2
		c-1.6,2.5-1.7,5.4-1.6,6.6c-2,0.4-2.6,2.2-2.7,3.3c0,0.2,0.1,0.3,0.2,0.5c0.1,0.1,0.3,0.2,0.5,0.2H25h8.8c0.2,0,0.3-0.1,0.5-0.2
		c0.1-0.1,0.2-0.3,0.2-0.5C34.4,37.1,33.7,35.2,31.8,34.8 M17,37.5c0.2-0.6,0.7-1.5,2-1.5c0.2,0,0.4-0.1,0.5-0.2
		c0.1-0.1,0.2-0.3,0.2-0.5c0,0-0.4-3.7,1.4-6.5c2-3.2,1.4-7.5,1.3-7.7c-0.1-0.3-0.3-0.5-0.6-0.5H20l0-0.6c0.3-0.1,0.5-0.3,0.5-0.6
		v-6.9h1v1.6c0,0.4,0.3,0.6,0.6,0.6h1.8c0.4,0,0.6-0.3,0.6-0.6v-1.6H25v25H17z"/>
</g>
</svg>
