<?xml version="1.0" encoding="utf-8"?>
<!-- Generator: Adobe Illustrator 18.1.1, SVG Export Plug-In . SVG Version: 6.00 Build 0)  -->
<!DOCTYPE svg PUBLIC "-//W3C//DTD SVG 1.1//EN" "http://www.w3.org/Graphics/SVG/1.1/DTD/svg11.dtd">
<svg version="1.1" id="Layer_1" xmlns="http://www.w3.org/2000/svg" xmlns:xlink="http://www.w3.org/1999/xlink" x="0px" y="0px"
	 viewBox="0 0 50 50" enable-background="new 0 0 50 50" xml:space="preserve">
<g>
	<path fill="#FFFFFF" d="M26.6,31.8H26V21.7h10.1c0.5,0,1-0.4,1-1s-0.4-1-1-1H13.9c-0.5,0-1,0.4-1,1s0.4,1,1,1H24v10.1h-0.7
		c-0.5,0-1,0.4-1,1c0,0.5,0.4,1,1,1h3.2c0.5,0,1-0.4,1-1C27.6,32.3,27.2,31.8,26.6,31.8z"/>
	<path fill="#FFFFFF" d="M41.4,16.2c-0.5,0-1,0.4-1,1v8h-6.9c-0.5,0-1,0.4-1,1v6.6c0,0.5,0.4,1,1,1s1-0.4,1-1v-5.7h6v5.7
		c0,0.5,0.4,1,1,1s1-0.4,1-1v-6.6v-9C42.4,16.6,41.9,16.2,41.4,16.2z"/>
	<path fill="#FFFFFF" d="M16.5,25.2H9.6v-8c0-0.5-0.4-1-1-1s-1,0.4-1,1v9v6.6c0,0.5,0.4,1,1,1s1-0.4,1-1v-5.7h6v5.7c0,0.5,0.4,1,1,1
		s1-0.4,1-1v-6.6C17.5,25.6,17.1,25.2,16.5,25.2z"/>
</g>
</svg>
