<?xml version="1.0" encoding="utf-8"?>
<!-- Generator: Adobe Illustrator 18.1.1, SVG Export Plug-In . SVG Version: 6.00 Build 0)  -->
<!DOCTYPE svg PUBLIC "-//W3C//DTD SVG 1.1//EN" "http://www.w3.org/Graphics/SVG/1.1/DTD/svg11.dtd">
<svg version="1.1" id="Layer_1" xmlns="http://www.w3.org/2000/svg" xmlns:xlink="http://www.w3.org/1999/xlink" x="0px" y="0px"
	 viewBox="0 0 30 30" enable-background="new 0 0 30 30" xml:space="preserve">
<g id="Layer_4_copy_1_">
	<path fill="#FFFFFF" d="M12.7,24.5v-9.5h-2.5v-3.2h2.5c0,0,0-2.1,0-2.6c0-0.4-0.1-3.6,4-3.6c0.6,0,1.9,0,3,0c0,1.4,0,2.9,0,3.3
		c-0.8,0-1.8,0-2.2,0s-0.8,0.4-0.8,0.7c0,0.3,0,2.2,0,2.2s2.6,0,2.9,0c-0.1,1.7-0.4,3.2-0.4,3.2h-2.6v9.5L12.7,24.5z"/>
</g>
</svg>
