<?xml version="1.0" encoding="utf-8"?>
<!-- Generator: Adobe Illustrator 18.0.0, SVG Export Plug-In . SVG Version: 6.00 Build 0)  -->
<!DOCTYPE svg PUBLIC "-//W3C//DTD SVG 1.1//EN" "http://www.w3.org/Graphics/SVG/1.1/DTD/svg11.dtd">
<svg version="1.1" id="Layer_1" xmlns="http://www.w3.org/2000/svg" xmlns:xlink="http://www.w3.org/1999/xlink" x="0px" y="0px"
	 viewBox="0 0 70 52" enable-background="new 0 0 70 52" xml:space="preserve">
<g>
	<circle fill="none" stroke="#002226" stroke-width="2.5" cx="35" cy="20.6" r="14"/>
	<circle fill="none" stroke="#002226" stroke-width="2.5" cx="43.6" cy="36.3" r="14"/>
	<circle fill="none" stroke="#002226" stroke-width="2.5" cx="26.4" cy="36.3" r="14"/>
	<defs>
		<filter id="Adobe_OpacityMaskFilter" filterUnits="userSpaceOnUse" x="15.4" y="11.3" width="39.2" height="39.2">
			<feFlood  style="flood-color:white;flood-opacity:1" result="back"/>
			<feBlend  in="SourceGraphic" in2="back" mode="normal"/>
		</filter>
	</defs>
	<mask maskUnits="userSpaceOnUse" x="15.4" y="11.3" width="39.2" height="39.2" id="SVGID_1_">
		<g filter="url(#Adobe_OpacityMaskFilter)">
			
				<radialGradient id="SVGID_2_" cx="-348.5495" cy="152.1269" r="1" gradientTransform="matrix(19.625 0 0 -19.625 6875.2842 3016.436)" gradientUnits="userSpaceOnUse">
				<stop  offset="0" style="stop-color:#FFFFFF"/>
				<stop  offset="0.2192" style="stop-color:#FFFFFF"/>
				<stop  offset="0.2961" style="stop-color:#FBFBFB"/>
				<stop  offset="0.3753" style="stop-color:#EEEEEE"/>
				<stop  offset="0.4556" style="stop-color:#DADADA"/>
				<stop  offset="0.5368" style="stop-color:#BDBDBD"/>
				<stop  offset="0.6185" style="stop-color:#989898"/>
				<stop  offset="0.7009" style="stop-color:#6A6A6A"/>
				<stop  offset="0.782" style="stop-color:#353535"/>
				<stop  offset="0.853" style="stop-color:#000000"/>
				<stop  offset="0.9792" style="stop-color:#000000"/>
				<stop  offset="1" style="stop-color:#000000"/>
			</radialGradient>
			<rect x="-249.1" y="5.4" fill="url(#SVGID_2_)" width="570" height="55.3"/>
		</g>
	</mask>
	<g mask="url(#SVGID_1_)">
		<g>
			<path fill="#F05142" d="M35,50.6c10.8,0,19.6-8.8,19.6-19.6S45.8,11.3,35,11.3c-10.8,0-19.6,8.8-19.6,19.6S24.2,50.6,35,50.6"/>
		</g>
	</g>
	<path fill="none" stroke="#F05142" stroke-width="6" d="M40.1,33.7c-0.6-3.4-2.5-6.3-5.1-8.4c-2.6,2.1-4.5,5-5.1,8.4
		c1.6,0.6,3.3,1,5.1,1C36.8,34.7,38.5,34.3,40.1,33.7z"/>
	<path fill="#FFFFFF" d="M40.1,33.7c-0.6-3.4-2.5-6.3-5.1-8.4c-2.6,2.1-4.5,5-5.1,8.4c1.6,0.6,3.3,1,5.1,1
		C36.8,34.7,38.5,34.3,40.1,33.7"/>
	<path fill="none" stroke="#002226" stroke-width="2.5" d="M40.1,33.7c-0.6-3.4-2.5-6.3-5.1-8.4c-2.6,2.1-4.5,5-5.1,8.4
		c1.6,0.6,3.3,1,5.1,1C36.8,34.7,38.5,34.3,40.1,33.7z"/>
</g>
</svg>
