<?xml version="1.0" encoding="utf-8"?>
<!-- Generator: Adobe Illustrator 18.0.0, SVG Export Plug-In . SVG Version: 6.00 Build 0)  -->
<!DOCTYPE svg PUBLIC "-//W3C//DTD SVG 1.1//EN" "http://www.w3.org/Graphics/SVG/1.1/DTD/svg11.dtd">
<svg version="1.1" id="Layer_1" xmlns="http://www.w3.org/2000/svg" xmlns:xlink="http://www.w3.org/1999/xlink" x="0px" y="0px"
	 viewBox="0 0 70 52" enable-background="new 0 0 70 52" xml:space="preserve">
<g>
	<rect x="8.2" y="8.2" fill="#FFFFFF" width="53.4" height="33.5"/>
	<g>
		<path fill="none" stroke="#002226" stroke-width="2.5" d="M60.8,42H9.2V9.3h51.6V42z M65.4,50.8H4.6V4.8h60.8V50.8z"/>
	</g>
	<polygon fill="#37C1D1" points="39.9,46.3 39.9,47.9 30.1,47.9 30.1,46.3 1.6,46.3 1.6,50.8 68.4,50.8 68.4,46.3 	"/>
	<g>
		<polygon fill="none" stroke="#002226" stroke-width="2.5" points="39.9,46.3 39.9,47.9 30.1,47.9 30.1,46.3 1.6,46.3 1.6,50.8 
			68.4,50.8 68.4,46.3 		"/>
	</g>
	<polygon fill="#002226" points="37.9,14.1 28.5,26.4 33.3,26.4 32.1,35.8 41.5,23.8 36.7,23.8 	"/>
</g>
</svg>
