<?xml version="1.0" encoding="utf-8"?>
<!-- Generator: Adobe Illustrator 18.0.0, SVG Export Plug-In . SVG Version: 6.00 Build 0)  -->
<!DOCTYPE svg PUBLIC "-//W3C//DTD SVG 1.1//EN" "http://www.w3.org/Graphics/SVG/1.1/DTD/svg11.dtd">
<svg version="1.1" id="Layer_1" xmlns="http://www.w3.org/2000/svg" xmlns:xlink="http://www.w3.org/1999/xlink" x="0px" y="0px"
	 viewBox="0 0 70 52" enable-background="new 0 0 70 52" xml:space="preserve">
<g>
	<g>
		<path fill="#002226" d="M47.5,11.7c0-1.8-1.4-3.2-3.2-3.2c-0.6,0-1.1,0.1-1.6,0.4V7.1c0-0.1,0-0.1,0-0.2c0-1.8-1.4-3.2-3.2-3.2
			c-0.6,0-1.1,0.1-1.6,0.4c-0.2-1.6-1.5-2.8-3.2-2.8c-1.6,0-3,1.2-3.2,2.8c-0.5-0.3-1-0.4-1.6-0.4c-1.8,0-3.2,1.4-3.2,3.2v10
			c-0.8-0.7-1.8-1.1-2.9-1.1c-1,0-1.9,0.8-1.9,1.9v14.2c0,3.8,1.7,7.2,4.3,9.5c0,0,0.1,0.1,0.1,0.1c0.1,0.1,0.3,0.2,0.4,0.3l0,9
			c0,0.3,0.3,0.6,0.8,0.6h0c0,0,0,0,0,0h0c0.4,0,0.8-0.3,0.8-0.6l0-7.9c0.6,0.4,1.3,0.7,2,0.9c0.1,0,0.2,0.1,0.3,0.1
			c0.3,0,0.6-0.2,0.8-0.5c0.2-0.4-0.1-0.9-0.5-1.1c-0.2-0.1-0.5-0.2-0.7-0.3c0,0,0,0,0,0s0,0-0.1,0c-1-0.4-1.9-1-2.7-1.7
			c-0.1,0-0.1-0.1-0.2-0.1c-2.3-2-3.7-5-3.7-8.3V20.3l0-2.6c0-0.2,0.1-0.3,0.3-0.3c1.6,0,2.9,1.3,2.9,2.9v6.2c0,0.4,0.4,0.8,0.8,0.8
			h0c3.5,0,6.4,2.9,6.4,6.4c0,0.4,0.4,0.8,0.8,0.8c0.4,0,0.8-0.4,0.8-0.8c0-4.2-3.1-7.6-7.2-8V6.9c0-0.9,0.7-1.6,1.6-1.6
			c0.9,0,1.6,0.7,1.6,1.6c0,0.1,0,0.1,0,0.2l0,14.2c0,0.4,0.4,0.8,0.8,0.8l0,0l0,0c0.4,0,0.8-0.4,0.8-0.8V4.6l0,0c0,0,0-0.1,0-0.1
			c0-0.9,0.7-1.6,1.6-1.6c0.9,0,1.6,0.7,1.6,1.6c0,0,0,0.1,0,0.1l0,0l0,2c0,0.1,0,0.1,0,0.2c0,0.1,0,0.1,0,0.2v14.2
			c0,0.4,0.4,0.8,0.8,0.8c0.4,0,0.8-0.4,0.8-0.8V6.7c0.1-0.8,0.8-1.5,1.6-1.5c0.9,0,1.6,0.7,1.6,1.6c0,0,0,0.1,0,0.1l0,15.6
			c0,0.4,0.3,0.8,0.8,0.8l0,0h0h0c0.4,0,0.8-0.4,0.8-0.8V11.8l0,0c0,0,0-0.1,0-0.1c0-0.9,0.7-1.6,1.6-1.6c0.9,0,1.6,0.7,1.6,1.6
			c0,0,0,0.1,0,0.1v20.1c0,3.2-1.3,6-3.4,8.1c-0.1,0-0.1,0.1-0.2,0.1c-1.1,1-2.3,1.8-3.7,2.3c-0.4,0.2-0.6,0.6-0.5,1.1
			c0.1,0.3,0.4,0.5,0.8,0.5c0.1,0,0.2,0,0.3-0.1c0.7-0.3,1.4-0.6,2-0.9l0,7.9c0,0.3,0.3,0.6,0.8,0.6h0c0,0,0,0,0,0h0
			c0.4,0,0.8-0.3,0.8-0.6l0-9c0.2-0.2,0.5-0.4,0.7-0.6c0,0,0,0,0.1-0.1c2.5-2.3,4-5.6,4-9.3v-20C47.5,11.8,47.5,11.7,47.5,11.7"/>
		<path fill="none" stroke="#002226" stroke-miterlimit="10" d="M47.5,11.7c0-1.8-1.4-3.2-3.2-3.2c-0.6,0-1.1,0.1-1.6,0.4V7.1
			c0-0.1,0-0.1,0-0.2c0-1.8-1.4-3.2-3.2-3.2c-0.6,0-1.1,0.1-1.6,0.4c-0.2-1.6-1.5-2.8-3.2-2.8c-1.6,0-3,1.2-3.2,2.8
			c-0.5-0.3-1-0.4-1.6-0.4c-1.8,0-3.2,1.4-3.2,3.2v10c-0.8-0.7-1.8-1.1-2.9-1.1c-1,0-1.9,0.8-1.9,1.9v14.2c0,3.8,1.7,7.2,4.3,9.5
			c0,0,0.1,0.1,0.1,0.1c0.1,0.1,0.3,0.2,0.4,0.3l0,9c0,0.3,0.3,0.6,0.8,0.6h0c0,0,0,0,0,0h0c0.4,0,0.8-0.3,0.8-0.6l0-7.9
			c0.6,0.4,1.3,0.7,2,0.9c0.1,0,0.2,0.1,0.3,0.1c0.3,0,0.6-0.2,0.8-0.5c0.2-0.4-0.1-0.9-0.5-1.1c-0.2-0.1-0.5-0.2-0.7-0.3
			c0,0,0,0,0,0s0,0-0.1,0c-1-0.4-1.9-1-2.7-1.7c-0.1,0-0.1-0.1-0.2-0.1c-2.3-2-3.7-5-3.7-8.3V20.3l0-2.6c0-0.2,0.1-0.3,0.3-0.3
			c1.6,0,2.9,1.3,2.9,2.9v6.2c0,0.4,0.4,0.8,0.8,0.8h0c3.5,0,6.4,2.9,6.4,6.4c0,0.4,0.4,0.8,0.8,0.8c0.4,0,0.8-0.4,0.8-0.8
			c0-4.2-3.1-7.6-7.2-8V6.9c0-0.9,0.7-1.6,1.6-1.6c0.9,0,1.6,0.7,1.6,1.6c0,0.1,0,0.1,0,0.2l0,14.2c0,0.4,0.4,0.8,0.8,0.8l0,0l0,0
			c0.4,0,0.8-0.4,0.8-0.8V4.6l0,0c0,0,0-0.1,0-0.1c0-0.9,0.7-1.6,1.6-1.6c0.9,0,1.6,0.7,1.6,1.6c0,0,0,0.1,0,0.1l0,0l0,2
			c0,0.1,0,0.1,0,0.2c0,0.1,0,0.1,0,0.2v14.2c0,0.4,0.4,0.8,0.8,0.8c0.4,0,0.8-0.4,0.8-0.8V6.7c0.1-0.8,0.8-1.5,1.6-1.5
			c0.9,0,1.6,0.7,1.6,1.6c0,0,0,0.1,0,0.1l0,15.6c0,0.4,0.3,0.8,0.8,0.8l0,0h0h0c0.4,0,0.8-0.4,0.8-0.8V11.8l0,0c0,0,0-0.1,0-0.1
			c0-0.9,0.7-1.6,1.6-1.6c0.9,0,1.6,0.7,1.6,1.6c0,0,0,0.1,0,0.1v20.1c0,3.2-1.3,6-3.4,8.1c-0.1,0-0.1,0.1-0.2,0.1
			c-1.1,1-2.3,1.8-3.7,2.3c-0.4,0.2-0.6,0.6-0.5,1.1c0.1,0.3,0.4,0.5,0.8,0.5c0.1,0,0.2,0,0.3-0.1c0.7-0.3,1.4-0.6,2-0.9l0,7.9
			c0,0.3,0.3,0.6,0.8,0.6h0c0,0,0,0,0,0h0c0.4,0,0.8-0.3,0.8-0.6l0-9c0.2-0.2,0.5-0.4,0.7-0.6c0,0,0,0,0.1-0.1c2.5-2.3,4-5.6,4-9.3
			v-20C47.5,11.8,47.5,11.7,47.5,11.7z"/>
	</g>
	<line fill="none" stroke="#FFFFFF" stroke-width="1.5" x1="11" y1="28.4" x2="11" y2="36.2"/>
	<line fill="none" stroke="#FFFFFF" stroke-width="1.5" x1="57" y1="8.1" x2="57" y2="15.8"/>
	<polygon fill="#FFFFFF" points="7.7,31.4 11,25.6 14.3,31.4 	"/>
	<polygon fill="#FFFFFF" points="53.7,11 60.3,11 57,5.2 	"/>
</g>
</svg>
