<?xml version="1.0" encoding="utf-8"?>
<!-- Generator: Adobe Illustrator 18.1.1, SVG Export Plug-In . SVG Version: 6.00 Build 0)  -->
<!DOCTYPE svg PUBLIC "-//W3C//DTD SVG 1.1//EN" "http://www.w3.org/Graphics/SVG/1.1/DTD/svg11.dtd">
<svg version="1.1" id="Layer_1" xmlns="http://www.w3.org/2000/svg" xmlns:xlink="http://www.w3.org/1999/xlink" x="0px" y="0px"
	 viewBox="0 0 30 30" enable-background="new 0 0 30 30" xml:space="preserve">
<g>
	<g>
		<path fill="#FFFFFF" d="M24.9,8.9c-0.8,0.3-1.5,0.6-2.3,0.7c0.8-0.4,1.5-1.4,1.8-2.2c-0.8,0.4-1.7,0.8-2.6,1
			c-0.8-0.8-1.8-1.2-2.9-1.2c-2.2,0-4,1.8-4,4c0,0.3,0,0.7,0.1,0.8c-3.5-0.1-6.5-1.7-8.4-4.1C6.2,8.3,6,9,6,9.7
			c0,1.5,0.7,2.6,1.8,3.3c-0.7,0-1.4-0.3-1.8-0.6l0,0c0,2.1,1.4,3.6,3.3,4c-0.3,0.1-0.7,0.1-1.1,0.1c-0.3,0-0.6,0-0.8-0.1
			c0.6,1.5,2.1,2.8,3.9,2.8C9.8,20.5,8,21.1,6,21.1c-0.3,0-0.7,0-1-0.1c1.8,1.1,3.9,1.8,6.2,1.8c7.5,0,11.6-6.2,11.6-11.6
			c0-0.3,0-0.3,0-0.6C23.7,10.4,24.4,9.5,24.9,8.9"/>
	</g>
</g>
</svg>
